<svg width="121" height="96" viewBox="0 0 121 96" fill="none" xmlns="http://www.w3.org/2000/svg">
<rect x="26.2255" y="1.5" width="72.3536" height="42.0114" rx="2.5" fill="#ff541a" stroke="white" stroke-width="3"/>
<path d="M58.5878 26.2538V18.7171C58.5878 17.923 59.4689 17.4457 60.134 17.8795L66.3248 21.917C66.9529 22.3266 66.9234 23.2562 66.2706 23.6252L60.0798 27.1243C59.4132 27.5011 58.5878 27.0195 58.5878 26.2538Z" fill="#ff541a"/>
<rect x="1.5" y="19.1631" width="72.3536" height="42.0114" rx="2.5" fill="#ff541a" stroke="white" stroke-width="3"/>
<path d="M31 46.9453V34.5052C31 33.7111 31.8811 33.2338 32.5463 33.6676L42.7649 40.3319C43.393 40.7416 43.3635 41.6711 42.7107 42.0401L32.4921 47.8158C31.8254 48.1926 31 47.711 31 46.9453Z" fill="white"/>
<rect x="38.2267" y="52.7938" width="72.3536" height="42.0114" rx="2.5" transform="rotate(-15 38.2267 52.7938)" fill="#ff541a" stroke="white" stroke-width="3"/>
<g clip-path="url(#clip0)">
<path d="M83.718 57.8008L81.4836 58.3995L81.4221 58.1699C81.1473 57.1444 80.092 56.5351 79.0664 56.8099L75.513 57.762C74.487 58.0369 73.8782 59.0921 74.1529 60.1177L74.2144 60.3472L71.9797 60.946C70.9537 61.2209 70.3447 62.2757 70.6196 63.3017L72.4266 70.0453C72.7014 71.0708 73.7563 71.6802 74.7822 71.4053L86.5213 68.2598C87.5473 67.9849 88.1562 66.9297 87.8814 65.9042L86.0744 59.1606C85.7986 58.1344 84.7439 57.5259 83.718 57.8008ZM80.1346 67.9056C78.1991 68.4242 76.2036 67.2721 75.685 65.3366C75.1665 63.4016 76.3185 61.4056 78.2539 60.887C80.1894 60.3684 82.1849 61.5205 82.7035 63.456C83.2221 65.3915 82.0696 67.3871 80.1346 67.9056ZM81.0521 63.8985C81.3263 64.922 80.7159 65.9798 79.6921 66.2542C78.6682 66.5285 77.6106 65.9176 77.3364 64.8941C77.0621 63.8702 77.6726 62.8128 78.6964 62.5385C79.7203 62.2641 80.7778 62.8746 81.0521 63.8985Z" fill="white"/>
</g>
<defs>
<clipPath id="clip0">
<rect width="16" height="16" fill="white" transform="translate(69.1731 57.9033) rotate(-15)"/>
</clipPath>
</defs>
</svg>
